<svg role="img" xmlns="http://www.w3.org/2000/svg"><title>Alexandria</title><path d="M 4.4 54 L 0.9 54 Q 2 51.1 4.75 49.95 Q 7.323 48.874 10.815 48.805 A 24.452 24.452 0 0 1 11.3 48.8 Q 13 48.8 14.8 49 A 80.858 80.858 0 0 1 18.263 49.463 A 88.429 88.429 0 0 1 18.5 49.5 Q 23.6 41.8 28.95 34.55 Q 34.3 27.3 38.95 21.65 Q 43.263 16.41 46.242 13.535 A 40.967 40.967 0 0 1 46.7 13.1 A 19.363 19.363 0 0 1 48.004 11.941 Q 49.344 10.864 50.431 10.494 A 3.324 3.324 0 0 1 51.5 10.3 A 3.41 3.41 0 0 1 52.473 10.451 Q 53.17 10.659 53.95 11.15 A 13.143 13.143 0 0 1 55.16 12.018 Q 55.757 12.497 56.381 13.091 A 24.055 24.055 0 0 1 56.8 13.5 A 3.279 3.279 0 0 0 56.301 14.021 Q 55.437 15.109 54.25 17.75 Q 52.7 21.2 50.95 26.4 Q 49.2 31.6 47.5 37.8 Q 45.8 44 44.35 50.45 Q 42.9 56.9 42.05 62.7 Q 41.366 67.367 41.232 71.128 A 49.95 49.95 0 0 0 41.2 72.9 A 27.446 27.446 0 0 0 41.281 75.083 Q 41.45 77.195 41.973 78.601 A 7.484 7.484 0 0 0 42.05 78.8 A 4.229 4.229 0 0 0 42.619 79.815 A 2.737 2.737 0 0 0 44.9 80.9 A 4.71 4.71 0 0 0 46.815 80.455 Q 48.318 79.786 50.018 78.113 A 22.142 22.142 0 0 0 50.8 77.3 A 28.784 28.784 0 0 0 52.921 74.659 Q 54.982 71.794 57.252 67.532 A 105.733 105.733 0 0 0 58 66.1 L 59 67.1 A 48.226 48.226 0 0 1 55.942 73.755 Q 53.957 77.297 51.508 80.025 A 30.149 30.149 0 0 1 51.35 80.2 Q 46.7 85.3 41.7 85.3 A 7.154 7.154 0 0 1 39.095 84.849 Q 37.285 84.147 36.148 82.352 A 8.448 8.448 0 0 1 35.75 81.65 A 15.009 15.009 0 0 1 34.587 78.425 Q 34.201 76.845 34.031 74.978 A 34.191 34.191 0 0 1 33.9 71.9 Q 33.9 68.7 34.35 64.9 A 103.566 103.566 0 0 1 35.222 59.031 A 118.096 118.096 0 0 1 35.6 57 Q 31.2 56.3 27.55 55.85 Q 23.9 55.4 20.8 55 Q 16.1 63.7 11.65 72.9 A 424.124 424.124 0 0 0 3.519 90.722 A 390.331 390.331 0 0 0 3.4 91 Q 1.284 89.749 0.648 88.36 A 3.265 3.265 0 0 1 0.6 88.25 A 10.467 10.467 0 0 1 0.271 87.347 Q 0.135 86.909 0.068 86.523 A 4.204 4.204 0 0 1 0 85.8 A 10.62 10.62 0 0 1 0.195 83.881 Q 0.633 81.519 2.05 78.2 Q 4.1 73.4 7.55 67.25 Q 11 61.1 15.2 54.5 Q 12.656 54.294 10.632 54.182 A 104.139 104.139 0 0 0 8.9 54.1 A 158.53 158.53 0 0 0 7.048 54.039 Q 5.588 54 4.4 54 Z M 36.3 53.5 Q 37.8 46.9 39.8 40.15 Q 41.8 33.4 44.05 27.3 A 254.411 254.411 0 0 1 45.971 22.25 Q 46.874 19.953 47.733 17.923 A 145.061 145.061 0 0 1 48.3 16.6 A 17.626 17.626 0 0 0 46.27 18.076 Q 43.934 20.016 41.15 23.35 Q 37.67 27.518 33.857 33.237 A 170.521 170.521 0 0 0 32.6 35.15 Q 28.1 42.1 23.4 50.4 Q 26.8 51.1 30.15 51.95 Q 33.5 52.8 36.3 53.5 Z M 64.277 6.629 A 22.809 22.809 0 0 0 66 6.7 Q 67.406 6.7 68.469 6.013 A 4.837 4.837 0 0 0 69.8 4.7 Q 66.3 3.6 62.05 2.55 Q 57.8 1.5 53.6 0.75 A 51.538 51.538 0 0 0 50.505 0.291 A 41.557 41.557 0 0 0 45.7 0 Q 42.1 0 41.1 2.6 A 33.817 33.817 0 0 1 42.255 2.721 Q 43.23 2.84 44.346 3.026 A 72.066 72.066 0 0 1 46.65 3.45 Q 49.9 4.1 53.55 4.85 A 210.844 210.844 0 0 0 55.797 5.299 A 179.593 179.593 0 0 0 60.5 6.15 A 52.006 52.006 0 0 0 62.501 6.446 Q 63.445 6.566 64.277 6.629 Z"/></svg>